<mxfile host="app.diagrams.net" modified="2022-01-10T14:20:27.472Z" agent="5.0 (Macintosh; Intel Mac OS X 10_15_7) AppleWebKit/537.36 (KHTML, like Gecko) Chrome/96.0.4664.45 Safari/537.36" etag="G4LpB71yhvhicPtX_Ral" version="16.2.4" type="github" pages="3">
  <diagram id="SFGFKdBsq_LgU8wBkwlt" name="HLD">
    <mxGraphModel dx="769" dy="550" grid="1" gridSize="10" guides="1" tooltips="1" connect="1" arrows="1" fold="1" page="1" pageScale="1" pageWidth="827" pageHeight="1169" math="0" shadow="0">
      <root>
        <mxCell id="0" />
        <mxCell id="1" parent="0" />
        <mxCell id="IxMNwCfS60NAuG1sPDfC-7" style="edgeStyle=none;rounded=0;orthogonalLoop=1;jettySize=auto;html=1;exitX=1;exitY=0.25;exitDx=0;exitDy=0;entryX=0;entryY=0.25;entryDx=0;entryDy=0;" parent="1" source="IxMNwCfS60NAuG1sPDfC-1" target="IxMNwCfS60NAuG1sPDfC-2" edge="1">
          <mxGeometry relative="1" as="geometry" />
        </mxCell>
        <mxCell id="IxMNwCfS60NAuG1sPDfC-14" value="CheckList API&lt;br&gt;Request" style="edgeLabel;html=1;align=center;verticalAlign=middle;resizable=0;points=[];" parent="IxMNwCfS60NAuG1sPDfC-7" vertex="1" connectable="0">
          <mxGeometry x="-0.209" y="-1" relative="1" as="geometry">
            <mxPoint y="-9" as="offset" />
          </mxGeometry>
        </mxCell>
        <mxCell id="tLN3g65VDf-i_EO2xMAO-1" value="1" style="edgeLabel;html=1;align=center;verticalAlign=middle;resizable=0;points=[];strokeColor=#B5739D;" vertex="1" connectable="0" parent="IxMNwCfS60NAuG1sPDfC-7">
          <mxGeometry x="0.5373" y="1" relative="1" as="geometry">
            <mxPoint as="offset" />
          </mxGeometry>
        </mxCell>
        <mxCell id="IxMNwCfS60NAuG1sPDfC-21" style="edgeStyle=orthogonalEdgeStyle;rounded=0;orthogonalLoop=1;jettySize=auto;html=1;exitX=0.5;exitY=1;exitDx=0;exitDy=0;entryX=0;entryY=1;entryDx=0;entryDy=0;" parent="1" source="IxMNwCfS60NAuG1sPDfC-1" target="IxMNwCfS60NAuG1sPDfC-2" edge="1">
          <mxGeometry relative="1" as="geometry" />
        </mxCell>
        <mxCell id="IxMNwCfS60NAuG1sPDfC-22" value="Documents Upload" style="edgeLabel;html=1;align=center;verticalAlign=middle;resizable=0;points=[];" parent="IxMNwCfS60NAuG1sPDfC-21" vertex="1" connectable="0">
          <mxGeometry x="-0.2564" y="1" relative="1" as="geometry">
            <mxPoint as="offset" />
          </mxGeometry>
        </mxCell>
        <mxCell id="tLN3g65VDf-i_EO2xMAO-7" value="7" style="edgeLabel;html=1;align=center;verticalAlign=middle;resizable=0;points=[];" vertex="1" connectable="0" parent="IxMNwCfS60NAuG1sPDfC-21">
          <mxGeometry x="0.4957" relative="1" as="geometry">
            <mxPoint as="offset" />
          </mxGeometry>
        </mxCell>
        <mxCell id="IxMNwCfS60NAuG1sPDfC-1" value="UI" style="rounded=0;whiteSpace=wrap;html=1;fillColor=#00CC66;" parent="1" vertex="1">
          <mxGeometry x="40" y="70" width="120" height="60" as="geometry" />
        </mxCell>
        <mxCell id="IxMNwCfS60NAuG1sPDfC-8" style="edgeStyle=none;rounded=0;orthogonalLoop=1;jettySize=auto;html=1;exitX=1;exitY=0.25;exitDx=0;exitDy=0;entryX=0;entryY=0.25;entryDx=0;entryDy=0;" parent="1" source="IxMNwCfS60NAuG1sPDfC-2" target="IxMNwCfS60NAuG1sPDfC-3" edge="1">
          <mxGeometry relative="1" as="geometry" />
        </mxCell>
        <mxCell id="IxMNwCfS60NAuG1sPDfC-16" value="Document&lt;br&gt;CheckList API Req" style="edgeLabel;html=1;align=center;verticalAlign=middle;resizable=0;points=[];" parent="IxMNwCfS60NAuG1sPDfC-8" vertex="1" connectable="0">
          <mxGeometry x="-0.1667" y="2" relative="1" as="geometry">
            <mxPoint as="offset" />
          </mxGeometry>
        </mxCell>
        <mxCell id="tLN3g65VDf-i_EO2xMAO-2" value="3" style="edgeLabel;html=1;align=center;verticalAlign=middle;resizable=0;points=[];" vertex="1" connectable="0" parent="IxMNwCfS60NAuG1sPDfC-8">
          <mxGeometry x="0.6923" y="2" relative="1" as="geometry">
            <mxPoint as="offset" />
          </mxGeometry>
        </mxCell>
        <mxCell id="IxMNwCfS60NAuG1sPDfC-10" style="edgeStyle=none;rounded=0;orthogonalLoop=1;jettySize=auto;html=1;exitX=0.75;exitY=1;exitDx=0;exitDy=0;entryX=0.7;entryY=0;entryDx=0;entryDy=0;entryPerimeter=0;" parent="1" source="IxMNwCfS60NAuG1sPDfC-2" target="IxMNwCfS60NAuG1sPDfC-4" edge="1">
          <mxGeometry relative="1" as="geometry" />
        </mxCell>
        <mxCell id="IxMNwCfS60NAuG1sPDfC-19" value="CheckList&lt;br&gt;Res" style="edgeLabel;html=1;align=center;verticalAlign=middle;resizable=0;points=[];" parent="IxMNwCfS60NAuG1sPDfC-10" vertex="1" connectable="0">
          <mxGeometry x="-0.0769" relative="1" as="geometry">
            <mxPoint as="offset" />
          </mxGeometry>
        </mxCell>
        <mxCell id="tLN3g65VDf-i_EO2xMAO-5" value="5" style="edgeLabel;html=1;align=center;verticalAlign=middle;resizable=0;points=[];" vertex="1" connectable="0" parent="IxMNwCfS60NAuG1sPDfC-10">
          <mxGeometry x="0.4458" y="1" relative="1" as="geometry">
            <mxPoint as="offset" />
          </mxGeometry>
        </mxCell>
        <mxCell id="IxMNwCfS60NAuG1sPDfC-11" style="edgeStyle=none;rounded=0;orthogonalLoop=1;jettySize=auto;html=1;exitX=0.5;exitY=1;exitDx=0;exitDy=0;entryX=0.233;entryY=-0.037;entryDx=0;entryDy=0;entryPerimeter=0;" parent="1" source="IxMNwCfS60NAuG1sPDfC-2" target="IxMNwCfS60NAuG1sPDfC-4" edge="1">
          <mxGeometry relative="1" as="geometry" />
        </mxCell>
        <mxCell id="IxMNwCfS60NAuG1sPDfC-18" value="ChecKList&lt;br&gt;Req" style="edgeLabel;html=1;align=center;verticalAlign=middle;resizable=0;points=[];" parent="IxMNwCfS60NAuG1sPDfC-11" vertex="1" connectable="0">
          <mxGeometry x="-0.5277" relative="1" as="geometry">
            <mxPoint as="offset" />
          </mxGeometry>
        </mxCell>
        <mxCell id="tLN3g65VDf-i_EO2xMAO-3" value="2" style="edgeLabel;html=1;align=center;verticalAlign=middle;resizable=0;points=[];" vertex="1" connectable="0" parent="IxMNwCfS60NAuG1sPDfC-11">
          <mxGeometry x="0.165" relative="1" as="geometry">
            <mxPoint as="offset" />
          </mxGeometry>
        </mxCell>
        <mxCell id="IxMNwCfS60NAuG1sPDfC-12" style="edgeStyle=orthogonalEdgeStyle;rounded=0;orthogonalLoop=1;jettySize=auto;html=1;exitX=0.25;exitY=1;exitDx=0;exitDy=0;entryX=0.4;entryY=0.1;entryDx=0;entryDy=0;entryPerimeter=0;" parent="1" source="IxMNwCfS60NAuG1sPDfC-2" target="tLN3g65VDf-i_EO2xMAO-10" edge="1">
          <mxGeometry relative="1" as="geometry" />
        </mxCell>
        <mxCell id="IxMNwCfS60NAuG1sPDfC-20" value="Document storage" style="edgeLabel;html=1;align=center;verticalAlign=middle;resizable=0;points=[];" parent="IxMNwCfS60NAuG1sPDfC-12" vertex="1" connectable="0">
          <mxGeometry x="-0.0328" y="1" relative="1" as="geometry">
            <mxPoint as="offset" />
          </mxGeometry>
        </mxCell>
        <mxCell id="tLN3g65VDf-i_EO2xMAO-8" value="8" style="edgeLabel;html=1;align=center;verticalAlign=middle;resizable=0;points=[];" vertex="1" connectable="0" parent="IxMNwCfS60NAuG1sPDfC-12">
          <mxGeometry x="0.7623" y="-1" relative="1" as="geometry">
            <mxPoint as="offset" />
          </mxGeometry>
        </mxCell>
        <mxCell id="IxMNwCfS60NAuG1sPDfC-13" style="edgeStyle=none;rounded=0;orthogonalLoop=1;jettySize=auto;html=1;exitX=0;exitY=0.75;exitDx=0;exitDy=0;entryX=1;entryY=0.75;entryDx=0;entryDy=0;" parent="1" edge="1">
          <mxGeometry relative="1" as="geometry">
            <mxPoint x="294" y="110" as="sourcePoint" />
            <mxPoint x="160" y="110" as="targetPoint" />
          </mxGeometry>
        </mxCell>
        <mxCell id="IxMNwCfS60NAuG1sPDfC-15" value="CheckList&lt;br&gt;API Response" style="edgeLabel;html=1;align=center;verticalAlign=middle;resizable=0;points=[];" parent="IxMNwCfS60NAuG1sPDfC-13" vertex="1" connectable="0">
          <mxGeometry x="0.3881" y="-1" relative="1" as="geometry">
            <mxPoint x="16" y="7" as="offset" />
          </mxGeometry>
        </mxCell>
        <mxCell id="tLN3g65VDf-i_EO2xMAO-6" value="6" style="edgeLabel;html=1;align=center;verticalAlign=middle;resizable=0;points=[];" vertex="1" connectable="0" parent="IxMNwCfS60NAuG1sPDfC-13">
          <mxGeometry x="-0.5373" relative="1" as="geometry">
            <mxPoint as="offset" />
          </mxGeometry>
        </mxCell>
        <mxCell id="IxMNwCfS60NAuG1sPDfC-2" value="Checklist&lt;br&gt;Microservice" style="rounded=0;whiteSpace=wrap;html=1;strokeColor=#FF99CC;fillColor=#FF99CC;" parent="1" vertex="1">
          <mxGeometry x="294" y="70" width="120" height="60" as="geometry" />
        </mxCell>
        <mxCell id="IxMNwCfS60NAuG1sPDfC-9" style="edgeStyle=none;rounded=0;orthogonalLoop=1;jettySize=auto;html=1;exitX=0;exitY=0.75;exitDx=0;exitDy=0;entryX=1;entryY=0.75;entryDx=0;entryDy=0;" parent="1" source="IxMNwCfS60NAuG1sPDfC-3" target="IxMNwCfS60NAuG1sPDfC-2" edge="1">
          <mxGeometry relative="1" as="geometry" />
        </mxCell>
        <mxCell id="IxMNwCfS60NAuG1sPDfC-17" value="CheckList API Res" style="edgeLabel;html=1;align=center;verticalAlign=middle;resizable=0;points=[];" parent="IxMNwCfS60NAuG1sPDfC-9" vertex="1" connectable="0">
          <mxGeometry x="0.1026" relative="1" as="geometry">
            <mxPoint as="offset" />
          </mxGeometry>
        </mxCell>
        <mxCell id="tLN3g65VDf-i_EO2xMAO-4" value="4" style="edgeLabel;html=1;align=center;verticalAlign=middle;resizable=0;points=[];" vertex="1" connectable="0" parent="IxMNwCfS60NAuG1sPDfC-9">
          <mxGeometry x="-0.7179" relative="1" as="geometry">
            <mxPoint as="offset" />
          </mxGeometry>
        </mxCell>
        <mxCell id="IxMNwCfS60NAuG1sPDfC-3" value="CheckList API" style="rounded=0;whiteSpace=wrap;html=1;fillColor=#00CCCC;" parent="1" vertex="1">
          <mxGeometry x="570" y="70" width="120" height="60" as="geometry" />
        </mxCell>
        <mxCell id="IxMNwCfS60NAuG1sPDfC-4" value="DB" style="shape=cylinder3;whiteSpace=wrap;html=1;boundedLbl=1;backgroundOutline=1;size=15;fillColor=#A680B8;" parent="1" vertex="1">
          <mxGeometry x="340" y="260" width="60" height="80" as="geometry" />
        </mxCell>
        <mxCell id="tLN3g65VDf-i_EO2xMAO-9" value="&lt;h1&gt;To-Be&lt;/h1&gt;&lt;p&gt;1. UI initiates document checklist API call by providing required data fields.&lt;/p&gt;&lt;p&gt;2. Document checklist microservice saves the request to a db.&lt;/p&gt;&lt;p&gt;3. The microservice also initiate a call to the Checklist API&lt;/p&gt;&lt;p&gt;4. Checklist API responds with a list of expected documents that need to be uploaded.&lt;/p&gt;&lt;p&gt;5. A response from the document checklist API is saved in the DB, alongside the corresponding request.&lt;/p&gt;&lt;p&gt;6. Response on step 4 is also send to the UI.&lt;/p&gt;&lt;p&gt;7. UI sends uploaded documents to the microservice.&lt;/p&gt;&lt;p&gt;8. Microservice uploads the documents to a remote cloud storage and returns a reference to the documents to the UI.&lt;/p&gt;" style="text;html=1;strokeColor=none;fillColor=none;spacing=5;spacingTop=-20;whiteSpace=wrap;overflow=hidden;rounded=0;" vertex="1" parent="1">
          <mxGeometry x="40" y="390" width="560" height="300" as="geometry" />
        </mxCell>
        <mxCell id="tLN3g65VDf-i_EO2xMAO-10" value="Document&amp;nbsp;&lt;br&gt;Storage" style="ellipse;shape=cloud;whiteSpace=wrap;html=1;strokeColor=#FF99CC;fillColor=#0066CC;" vertex="1" parent="1">
          <mxGeometry x="80" y="250" width="120" height="80" as="geometry" />
        </mxCell>
      </root>
    </mxGraphModel>
  </diagram>
  <diagram id="E6ZJZUev4cxzvs1RTEKU" name="Use Case">
    <mxGraphModel dx="769" dy="550" grid="1" gridSize="10" guides="1" tooltips="1" connect="1" arrows="1" fold="1" page="1" pageScale="1" pageWidth="827" pageHeight="1169" math="0" shadow="0">
      <root>
        <mxCell id="j_flr7XlIJxbWJwG-iVD-0" />
        <mxCell id="j_flr7XlIJxbWJwG-iVD-1" parent="j_flr7XlIJxbWJwG-iVD-0" />
        <mxCell id="j_flr7XlIJxbWJwG-iVD-2" value="Customer" style="shape=umlActor;verticalLabelPosition=bottom;verticalAlign=top;html=1;outlineConnect=0;strokeColor=#FF99CC;fillColor=#0066CC;" vertex="1" parent="j_flr7XlIJxbWJwG-iVD-1">
          <mxGeometry x="100" y="190" width="60" height="110" as="geometry" />
        </mxCell>
        <mxCell id="j_flr7XlIJxbWJwG-iVD-3" value="Refinance" style="ellipse;whiteSpace=wrap;html=1;strokeColor=#FF99CC;fillColor=#0066CC;" vertex="1" parent="j_flr7XlIJxbWJwG-iVD-1">
          <mxGeometry x="340" y="110" width="140" height="70" as="geometry" />
        </mxCell>
        <mxCell id="j_flr7XlIJxbWJwG-iVD-4" value="New Loan" style="ellipse;whiteSpace=wrap;html=1;strokeColor=#FF99CC;fillColor=#0066CC;" vertex="1" parent="j_flr7XlIJxbWJwG-iVD-1">
          <mxGeometry x="340" y="290" width="140" height="70" as="geometry" />
        </mxCell>
        <mxCell id="j_flr7XlIJxbWJwG-iVD-5" value="" style="edgeStyle=none;html=1;endArrow=block;endFill=0;endSize=12;verticalAlign=bottom;rounded=0;entryX=0;entryY=0.5;entryDx=0;entryDy=0;" edge="1" parent="j_flr7XlIJxbWJwG-iVD-1" target="j_flr7XlIJxbWJwG-iVD-4">
          <mxGeometry width="160" relative="1" as="geometry">
            <mxPoint x="130" y="260" as="sourcePoint" />
            <mxPoint x="290" y="260" as="targetPoint" />
          </mxGeometry>
        </mxCell>
        <mxCell id="j_flr7XlIJxbWJwG-iVD-6" value="" style="edgeStyle=none;html=1;endArrow=block;endFill=0;endSize=12;verticalAlign=bottom;rounded=0;" edge="1" parent="j_flr7XlIJxbWJwG-iVD-1">
          <mxGeometry width="160" relative="1" as="geometry">
            <mxPoint x="130" y="260" as="sourcePoint" />
            <mxPoint x="340" y="144.5" as="targetPoint" />
          </mxGeometry>
        </mxCell>
      </root>
    </mxGraphModel>
  </diagram>
  <diagram id="RtlaSzf-DrLupRlzeGUS" name="sequence">
    <mxGraphModel dx="769" dy="550" grid="0" gridSize="10" guides="1" tooltips="1" connect="1" arrows="1" fold="1" page="1" pageScale="1" pageWidth="827" pageHeight="1169" background="none" math="0" shadow="1">
      <root>
        <mxCell id="pQbie3UsM-gM0Oni82FE-0" />
        <mxCell id="pQbie3UsM-gM0Oni82FE-1" parent="pQbie3UsM-gM0Oni82FE-0" />
        <mxCell id="pQbie3UsM-gM0Oni82FE-2" value="UI" style="shape=umlLifeline;perimeter=lifelinePerimeter;whiteSpace=wrap;html=1;container=1;collapsible=0;recursiveResize=0;outlineConnect=0;strokeColor=#d79b00;fillColor=#ffe6cc;" vertex="1" parent="pQbie3UsM-gM0Oni82FE-1">
          <mxGeometry x="140" y="30" width="100" height="378" as="geometry" />
        </mxCell>
        <mxCell id="pQbie3UsM-gM0Oni82FE-7" value="" style="html=1;points=[];perimeter=orthogonalPerimeter;strokeColor=#d79b00;fillColor=#ffe6cc;" vertex="1" parent="pQbie3UsM-gM0Oni82FE-2">
          <mxGeometry x="45" y="60" width="10" height="80" as="geometry" />
        </mxCell>
        <mxCell id="pQbie3UsM-gM0Oni82FE-17" value="" style="html=1;points=[];perimeter=orthogonalPerimeter;strokeColor=#d79b00;fillColor=#ffe6cc;" vertex="1" parent="pQbie3UsM-gM0Oni82FE-2">
          <mxGeometry x="45" y="234" width="10" height="80" as="geometry" />
        </mxCell>
        <mxCell id="pQbie3UsM-gM0Oni82FE-3" value="" style="shape=umlLifeline;participant=umlActor;perimeter=lifelinePerimeter;whiteSpace=wrap;html=1;container=1;collapsible=0;recursiveResize=0;verticalAlign=top;spacingTop=36;outlineConnect=0;strokeColor=#FF99CC;fillColor=#0066CC;" vertex="1" parent="pQbie3UsM-gM0Oni82FE-1">
          <mxGeometry x="40" y="30" width="20" height="379" as="geometry" />
        </mxCell>
        <mxCell id="pQbie3UsM-gM0Oni82FE-4" value="Checklist&lt;br&gt;Microservice" style="shape=umlLifeline;perimeter=lifelinePerimeter;whiteSpace=wrap;html=1;container=1;collapsible=0;recursiveResize=0;outlineConnect=0;strokeColor=#82b366;fillColor=#d5e8d4;" vertex="1" parent="pQbie3UsM-gM0Oni82FE-1">
          <mxGeometry x="314" y="30" width="100" height="375" as="geometry" />
        </mxCell>
        <mxCell id="pQbie3UsM-gM0Oni82FE-8" value="" style="html=1;points=[];perimeter=orthogonalPerimeter;strokeColor=#82b366;fillColor=#d5e8d4;" vertex="1" parent="pQbie3UsM-gM0Oni82FE-4">
          <mxGeometry x="45" y="60" width="10" height="121" as="geometry" />
        </mxCell>
        <mxCell id="pQbie3UsM-gM0Oni82FE-10" value="6. Document&lt;br&gt;Checklist JSON Resp" style="html=1;verticalAlign=bottom;endArrow=open;dashed=1;endSize=8;exitX=0;exitY=0.95;rounded=0;" edge="1" parent="pQbie3UsM-gM0Oni82FE-4">
          <mxGeometry relative="1" as="geometry">
            <mxPoint x="-118" y="125" as="targetPoint" />
            <mxPoint x="41" y="125" as="sourcePoint" />
          </mxGeometry>
        </mxCell>
        <mxCell id="pQbie3UsM-gM0Oni82FE-15" value="5. JPA Query&lt;br&gt;Request/Response" style="html=1;verticalAlign=bottom;startArrow=oval;startFill=1;endArrow=block;startSize=8;rounded=0;entryX=-0.1;entryY=0.3;entryDx=0;entryDy=0;entryPerimeter=0;" edge="1" parent="pQbie3UsM-gM0Oni82FE-4">
          <mxGeometry x="0.3056" y="-15" width="60" relative="1" as="geometry">
            <mxPoint x="48" y="166" as="sourcePoint" />
            <mxPoint x="385" y="166" as="targetPoint" />
            <mxPoint as="offset" />
          </mxGeometry>
        </mxCell>
        <mxCell id="pQbie3UsM-gM0Oni82FE-18" value="" style="html=1;points=[];perimeter=orthogonalPerimeter;strokeColor=#82b366;fillColor=#d5e8d4;" vertex="1" parent="pQbie3UsM-gM0Oni82FE-4">
          <mxGeometry x="43" y="232" width="10" height="80" as="geometry" />
        </mxCell>
        <mxCell id="pQbie3UsM-gM0Oni82FE-19" value="8. Documents&lt;br&gt;Submission" style="html=1;verticalAlign=bottom;endArrow=block;entryX=0;entryY=0;rounded=0;" edge="1" parent="pQbie3UsM-gM0Oni82FE-4">
          <mxGeometry relative="1" as="geometry">
            <mxPoint x="-119" y="247.0000000000001" as="sourcePoint" />
            <mxPoint x="43" y="247.0000000000001" as="targetPoint" />
          </mxGeometry>
        </mxCell>
        <mxCell id="pQbie3UsM-gM0Oni82FE-20" value="11. Response" style="html=1;verticalAlign=bottom;endArrow=open;dashed=1;endSize=8;exitX=0;exitY=0.95;rounded=0;" edge="1" parent="pQbie3UsM-gM0Oni82FE-4">
          <mxGeometry relative="1" as="geometry">
            <mxPoint x="-117" y="301" as="targetPoint" />
            <mxPoint x="43" y="301" as="sourcePoint" />
          </mxGeometry>
        </mxCell>
        <mxCell id="pQbie3UsM-gM0Oni82FE-5" value="Checklist&lt;br&gt;API" style="shape=umlLifeline;perimeter=lifelinePerimeter;whiteSpace=wrap;html=1;container=1;collapsible=0;recursiveResize=0;outlineConnect=0;strokeColor=#FF99CC;fillColor=#0066CC;" vertex="1" parent="pQbie3UsM-gM0Oni82FE-1">
          <mxGeometry x="480" y="30" width="100" height="154" as="geometry" />
        </mxCell>
        <mxCell id="pQbie3UsM-gM0Oni82FE-11" value="" style="html=1;points=[];perimeter=orthogonalPerimeter;strokeColor=#FF99CC;fillColor=#0066CC;" vertex="1" parent="pQbie3UsM-gM0Oni82FE-5">
          <mxGeometry x="44" y="60" width="10" height="80" as="geometry" />
        </mxCell>
        <mxCell id="pQbie3UsM-gM0Oni82FE-12" value="3. Checklist &lt;br&gt;JSON Req" style="html=1;verticalAlign=bottom;endArrow=block;entryX=0;entryY=0;rounded=0;" edge="1" parent="pQbie3UsM-gM0Oni82FE-5">
          <mxGeometry relative="1" as="geometry">
            <mxPoint x="-110" y="83" as="sourcePoint" />
            <mxPoint x="44" y="83.00000000000011" as="targetPoint" />
          </mxGeometry>
        </mxCell>
        <mxCell id="pQbie3UsM-gM0Oni82FE-13" value="4. Checklist JSON Res" style="html=1;verticalAlign=bottom;endArrow=open;dashed=1;endSize=8;exitX=0;exitY=0.95;rounded=0;" edge="1" parent="pQbie3UsM-gM0Oni82FE-5">
          <mxGeometry relative="1" as="geometry">
            <mxPoint x="-111" y="116" as="targetPoint" />
            <mxPoint x="44" y="116" as="sourcePoint" />
          </mxGeometry>
        </mxCell>
        <mxCell id="pQbie3UsM-gM0Oni82FE-6" value="Database" style="shape=umlLifeline;perimeter=lifelinePerimeter;whiteSpace=wrap;html=1;container=1;collapsible=0;recursiveResize=0;outlineConnect=0;strokeColor=#b85450;fillColor=#f8cecc;" vertex="1" parent="pQbie3UsM-gM0Oni82FE-1">
          <mxGeometry x="655" y="30" width="100" height="375" as="geometry" />
        </mxCell>
        <mxCell id="pQbie3UsM-gM0Oni82FE-14" value="" style="html=1;points=[];perimeter=orthogonalPerimeter;strokeColor=#b85450;fillColor=#f8cecc;" vertex="1" parent="pQbie3UsM-gM0Oni82FE-6">
          <mxGeometry x="45" y="130" width="10" height="80" as="geometry" />
        </mxCell>
        <mxCell id="pQbie3UsM-gM0Oni82FE-9" value="2. Document Checklist &lt;br&gt;JSON Req" style="html=1;verticalAlign=bottom;endArrow=block;entryX=0;entryY=0;rounded=0;align=center;" edge="1" parent="pQbie3UsM-gM0Oni82FE-1">
          <mxGeometry relative="1" as="geometry">
            <mxPoint x="200" y="100" as="sourcePoint" />
            <mxPoint x="359" y="100.00000000000011" as="targetPoint" />
          </mxGeometry>
        </mxCell>
        <mxCell id="pQbie3UsM-gM0Oni82FE-21" value="Document&lt;br&gt;Storage" style="shape=umlLifeline;perimeter=lifelinePerimeter;whiteSpace=wrap;html=1;container=1;collapsible=0;recursiveResize=0;outlineConnect=0;strokeColor=#FF99CC;fillColor=#0066CC;" vertex="1" parent="pQbie3UsM-gM0Oni82FE-1">
          <mxGeometry x="480" y="218" width="89" height="132" as="geometry" />
        </mxCell>
        <mxCell id="pQbie3UsM-gM0Oni82FE-25" value="" style="html=1;points=[];perimeter=orthogonalPerimeter;strokeColor=#FF99CC;fillColor=#0066CC;" vertex="1" parent="pQbie3UsM-gM0Oni82FE-21">
          <mxGeometry x="39.5" y="44" width="10" height="80" as="geometry" />
        </mxCell>
        <mxCell id="pQbie3UsM-gM0Oni82FE-24" value="9. Documents&lt;br&gt;Archiving" style="html=1;verticalAlign=bottom;endArrow=block;rounded=0;" edge="1" parent="pQbie3UsM-gM0Oni82FE-1">
          <mxGeometry width="80" relative="1" as="geometry">
            <mxPoint x="367" y="289" as="sourcePoint" />
            <mxPoint x="519.5" y="289" as="targetPoint" />
          </mxGeometry>
        </mxCell>
        <mxCell id="pQbie3UsM-gM0Oni82FE-26" value="10. Response" style="html=1;verticalAlign=bottom;endArrow=open;dashed=1;endSize=8;rounded=0;" edge="1" parent="pQbie3UsM-gM0Oni82FE-1">
          <mxGeometry relative="1" as="geometry">
            <mxPoint x="367" y="317" as="targetPoint" />
            <mxPoint x="517" y="317" as="sourcePoint" />
          </mxGeometry>
        </mxCell>
        <mxCell id="pQbie3UsM-gM0Oni82FE-27" value="1. Customer Filling &lt;br&gt;SMSF Data" style="html=1;verticalAlign=bottom;endArrow=block;rounded=0;" edge="1" parent="pQbie3UsM-gM0Oni82FE-1">
          <mxGeometry width="80" relative="1" as="geometry">
            <mxPoint x="52" y="122" as="sourcePoint" />
            <mxPoint x="185" y="122" as="targetPoint" />
          </mxGeometry>
        </mxCell>
        <mxCell id="pQbie3UsM-gM0Oni82FE-28" value="7. Customer Uploading &lt;br&gt;Documents" style="html=1;verticalAlign=bottom;endArrow=block;rounded=0;" edge="1" parent="pQbie3UsM-gM0Oni82FE-1">
          <mxGeometry width="80" relative="1" as="geometry">
            <mxPoint x="52" y="306" as="sourcePoint" />
            <mxPoint x="184" y="306" as="targetPoint" />
          </mxGeometry>
        </mxCell>
      </root>
    </mxGraphModel>
  </diagram>
</mxfile>
